<?xml version="1.0" standalone="no"?>
<!DOCTYPE svg PUBLIC "-//W3C//DTD SVG 20010904//EN"
 "http://www.w3.org/TR/2001/REC-SVG-20010904/DTD/svg10.dtd">
<svg version="1.0" xmlns="http://www.w3.org/2000/svg"
 width="1654.000000pt" height="1654.000000pt" viewBox="0 0 1654.000000 1654.000000"
 preserveAspectRatio="xMidYMid meet">
<metadata>
Created by potrace 1.14, written by Peter Selinger 2001-2017
</metadata>
<g transform="translate(0.000000,1654.000000) scale(0.100000,-0.100000)"
fill="#000000" stroke="none">
<path d="M7918 16535 c-2 -1 -55 -6 -118 -9 -192 -11 -353 -24 -380 -31 -8 -2
-49 -6 -90 -10 -42 -3 -87 -7 -100 -10 -14 -2 -41 -6 -60 -9 -208 -29 -413
-63 -565 -96 -49 -10 -101 -21 -115 -23 -14 -3 -43 -10 -65 -16 -37 -9 -240
-59 -275 -66 -8 -2 -85 -24 -170 -50 -85 -25 -159 -47 -165 -48 -51 -14 -166
-52 -192 -63 -17 -8 -36 -14 -41 -14 -17 0 -443 -162 -537 -205 -16 -7 -88
-39 -160 -70 -185 -82 -568 -276 -712 -361 -17 -11 -73 -43 -124 -73 -137 -79
-405 -254 -559 -364 -74 -53 -144 -102 -154 -109 -11 -7 -33 -24 -50 -38 -17
-14 -49 -39 -71 -55 -22 -16 -45 -34 -51 -40 -6 -5 -26 -21 -44 -35 -50 -37
-344 -287 -425 -361 -38 -35 -162 -156 -275 -269 -184 -184 -271 -276 -396
-420 -21 -25 -41 -47 -44 -50 -3 -3 -25 -30 -49 -60 -25 -30 -49 -59 -55 -65
-13 -11 -63 -75 -165 -211 -24 -32 -50 -65 -57 -73 -38 -46 -114 -153 -114
-161 0 -4 -4 -10 -8 -12 -9 -3 -197 -280 -279 -409 -157 -250 -392 -691 -523
-984 -86 -194 -91 -206 -140 -330 -23 -60 -48 -123 -56 -140 -39 -90 -173
-498 -225 -685 -59 -216 -137 -543 -155 -648 -8 -49 -24 -138 -29 -162 -3 -14
-7 -38 -10 -55 -3 -16 -7 -41 -10 -55 -2 -14 -7 -44 -10 -67 -3 -23 -8 -57
-10 -75 -3 -18 -7 -53 -10 -78 -3 -25 -8 -56 -10 -70 -13 -89 -14 -100 -31
-283 -23 -244 -29 -407 -28 -757 0 -312 6 -495 19 -635 2 -22 7 -69 10 -105 2
-36 7 -81 9 -100 3 -19 7 -62 11 -95 3 -33 8 -73 10 -90 3 -16 7 -48 10 -70
19 -166 95 -589 127 -710 5 -22 12 -51 15 -65 2 -14 9 -43 15 -65 5 -22 11
-47 13 -55 2 -8 26 -98 54 -200 67 -245 155 -514 237 -727 13 -35 36 -93 50
-130 14 -38 32 -82 39 -98 13 -29 36 -84 40 -95 5 -16 42 -96 76 -168 21 -46
39 -85 39 -88 0 -26 321 -626 411 -769 11 -16 22 -38 25 -48 4 -9 10 -17 14
-17 4 0 12 -12 19 -26 31 -68 414 -623 474 -686 7 -7 25 -31 41 -53 17 -22 32
-42 36 -45 3 -3 30 -36 61 -75 31 -38 65 -80 75 -92 11 -11 34 -39 52 -62 18
-22 45 -53 60 -69 15 -17 56 -63 92 -103 90 -102 477 -488 579 -579 47 -41 95
-84 107 -95 28 -26 56 -50 123 -105 30 -25 62 -52 71 -60 10 -8 26 -22 36 -30
11 -8 60 -47 109 -86 169 -133 448 -334 464 -334 5 0 11 -4 13 -8 4 -11 186
-132 199 -132 5 0 9 -4 9 -10 0 -5 5 -10 11 -10 6 0 29 -13 52 -29 197 -134
774 -435 1097 -571 69 -29 139 -58 155 -66 17 -7 48 -20 70 -27 89 -32 241
-89 260 -98 110 -50 810 -251 985 -283 14 -2 68 -13 120 -25 52 -11 109 -22
125 -25 17 -3 53 -10 80 -15 28 -5 68 -12 90 -16 22 -3 63 -10 90 -15 28 -5
71 -11 96 -15 25 -3 57 -7 70 -10 13 -2 49 -6 79 -9 30 -4 66 -8 80 -11 28 -4
127 -14 210 -21 30 -2 78 -6 105 -9 299 -27 970 -28 1290 0 28 2 82 7 120 10
39 3 84 7 100 10 17 2 50 7 75 10 137 15 166 19 315 41 139 20 154 23 205 34
25 5 59 11 75 14 76 11 347 72 520 116 348 89 721 212 1050 345 41 16 53 22
115 48 19 8 51 22 71 30 125 51 531 250 679 332 47 26 99 55 115 64 78 43 280
166 283 173 2 4 8 8 13 8 10 0 305 192 375 244 23 17 52 38 64 46 33 22 275
206 340 257 83 66 123 99 146 120 12 10 45 38 74 63 77 66 88 75 159 138 75
66 483 470 556 552 131 145 356 411 413 488 9 12 22 28 28 35 45 51 337 460
389 544 6 9 37 60 71 112 64 100 186 307 237 401 16 30 40 73 52 95 42 75 228
450 240 485 1 3 12 28 24 55 77 167 182 432 261 660 24 66 45 127 48 135 3 8
6 20 7 25 2 6 17 53 33 105 94 293 178 640 241 985 11 61 23 130 27 155 3 25
8 52 9 60 5 26 14 93 20 140 4 25 8 56 10 70 2 14 6 50 10 80 3 30 8 71 10 90
2 19 7 71 11 115 4 44 8 96 10 115 13 154 19 365 19 650 0 338 -9 544 -30 745
-3 28 -7 77 -10 110 -5 59 -11 107 -20 155 -2 14 -7 52 -10 85 -3 33 -8 67
-10 75 -2 8 -6 35 -9 60 -6 47 -12 82 -22 140 -4 19 -8 44 -9 55 -20 137 -118
571 -175 775 -48 170 -71 244 -81 265 -5 11 -15 45 -23 75 -13 45 -56 172 -90
265 -5 11 -24 63 -43 115 -19 52 -39 106 -45 120 -6 14 -14 34 -19 45 -5 11
-28 67 -52 125 -91 218 -259 565 -376 774 -34 60 -61 113 -61 118 0 4 -4 8
-10 8 -5 0 -10 4 -10 9 0 6 -26 53 -57 106 -32 53 -67 110 -77 128 -22 36
-275 416 -309 462 -62 86 -103 142 -114 155 -7 8 -49 62 -94 120 -71 92 -213
266 -229 280 -3 3 -20 23 -39 45 -138 163 -516 549 -695 710 -49 44 -94 85
-100 90 -23 22 -264 221 -295 245 -18 14 -56 43 -84 66 -48 37 -184 138 -302
224 -148 107 -545 360 -565 360 -5 0 -10 3 -10 8 0 4 -10 12 -23 18 -12 6 -85
46 -162 89 -408 227 -933 459 -1365 602 -111 37 -285 92 -310 98 -8 2 -49 14
-90 25 -41 12 -82 23 -90 25 -8 2 -60 16 -115 30 -128 33 -301 73 -351 81 -21
3 -41 7 -44 9 -3 2 -68 14 -145 28 -134 25 -177 32 -255 43 -19 2 -45 7 -57 9
-21 5 -49 8 -158 21 -27 3 -61 7 -75 9 -14 2 -54 6 -90 9 -36 4 -75 8 -85 10
-11 2 -72 7 -135 11 -63 5 -128 10 -145 12 -36 4 -842 12 -847 8z"/>
</g>
</svg>
